<?xml version="1.0" encoding="UTF-8"?>
<svg id="Layer_1" data-name="Layer 1" xmlns="http://www.w3.org/2000/svg" xmlns:xlink="http://www.w3.org/1999/xlink" viewBox="0 0 1200 500">
  <defs>
    <style>
      .cls-1 {
        fill: url(#linear-gradient);
      }

      .cls-1, .cls-2 {
        stroke-width: 0px;
      }

      .cls-2 {
        fill: #000;
      }
    </style>
    <linearGradient id="linear-gradient" x1="169.56" y1="321.77" x2="234.34" y2="321.77" gradientUnits="userSpaceOnUse">
      <stop offset=".01" stop-color="#41aef0"/>
      <stop offset=".49" stop-color="#0078d8"/>
      <stop offset="1" stop-color="#133a5e"/>
    </linearGradient>
  </defs>
  <path class="cls-1" d="M227.18,327.13c-17.75,4.01-32.62,4.03-50.46,0-5.12-1.5-8.13-5.68-6.88-8.71.29-.69.43-1.04.71-1.73,1.25-3.03,5.68-4.02,10.02-2.75,15.37,3.24,27.38,3.24,42.75,0,4.34-1.27,8.77-.28,10.02,2.75.29.69.43,1.04.71,1.73,1.25,3.03-1.76,7.21-6.88,8.71Z"/>
  <g>
    <path class="cls-2" d="M299.54,215.02v2.97c4.63-5.71,9.43-9.9,14.42-12.57,4.99-2.67,10.63-4.01,16.94-4.01,7.57,0,14.54,1.95,20.91,5.86,6.37,3.91,11.4,9.61,15.1,17.12,3.7,7.51,5.54,16.4,5.54,26.68,0,7.57-1.07,14.52-3.2,20.86-2.13,6.34-5.06,11.66-8.79,15.95-3.73,4.3-8.13,7.6-13.2,9.91-5.08,2.31-10.53,3.47-16.36,3.47-7.03,0-12.93-1.41-17.71-4.24-4.78-2.82-9.33-6.97-13.65-12.44v36.95c0,10.82-3.94,16.22-11.81,16.22-4.63,0-7.69-1.4-9.19-4.19-1.5-2.79-2.25-6.86-2.25-12.21v-106.17c0-4.69,1.02-8.19,3.06-10.5,2.04-2.31,4.84-3.47,8.38-3.47s6.32,1.19,8.52,3.56c2.19,2.37,3.29,5.78,3.29,10.23ZM347.76,250.8c0-6.49-.99-12.06-2.97-16.72-1.98-4.66-4.73-8.23-8.25-10.72-3.51-2.49-7.41-3.74-11.67-3.74-6.79,0-12.51,2.67-17.17,8.02-4.66,5.35-6.99,13.22-6.99,23.61,0,9.79,2.32,17.41,6.94,22.85,4.63,5.44,10.37,8.16,17.21,8.16,4.08,0,7.87-1.19,11.36-3.56,3.48-2.37,6.28-5.93,8.38-10.68,2.1-4.75,3.15-10.48,3.15-17.21Z"/>
    <path class="cls-2" d="M476,270.81c0,3.06-.91,6.34-2.75,9.82-1.83,3.49-4.63,6.81-8.38,9.96-3.75,3.15-8.49,5.69-14.2,7.62-5.71,1.92-12.14,2.88-19.28,2.88-15.2,0-27.07-4.43-35.6-13.29-8.54-8.86-12.8-20.74-12.8-35.65,0-10.09,1.95-19.02,5.86-26.77,3.9-7.75,9.55-13.75,16.94-17.98,7.39-4.24,16.22-6.35,26.5-6.35,6.37,0,12.21.93,17.53,2.79,5.32,1.86,9.82,4.27,13.52,7.21,3.7,2.94,6.52,6.08,8.47,9.42,1.95,3.33,2.93,6.44,2.93,9.33s-1.09,5.44-3.29,7.48c-2.2,2.04-4.86,3.06-7.98,3.06-2.04,0-3.74-.53-5.09-1.58-1.35-1.05-2.87-2.75-4.55-5.09-3.01-4.57-6.15-7.99-9.42-10.27-3.28-2.28-7.44-3.42-12.48-3.42-7.27,0-13.13,2.84-17.57,8.52-4.45,5.68-6.67,13.45-6.67,23.3,0,4.63.57,8.88,1.71,12.75,1.14,3.88,2.8,7.18,4.96,9.91,2.16,2.73,4.78,4.81,7.84,6.22,3.07,1.41,6.43,2.12,10.09,2.12,4.93,0,9.15-1.14,12.66-3.42,3.51-2.28,6.62-5.77,9.33-10.45,1.5-2.76,3.13-4.93,4.87-6.49,1.74-1.56,3.87-2.34,6.4-2.34,3,0,5.49,1.14,7.48,3.42,1.98,2.28,2.97,4.72,2.97,7.3Z"/>
    <path class="cls-2" d="M555.2,287.39c-5.95,4.63-11.7,8.1-17.26,10.41-5.56,2.31-11.79,3.47-18.7,3.47-6.31,0-11.85-1.25-16.63-3.74-4.77-2.49-8.46-5.87-11.04-10.14-2.58-4.27-3.87-8.89-3.87-13.88,0-6.73,2.13-12.47,6.4-17.21,4.27-4.75,10.12-7.93,17.57-9.55,1.56-.36,5.44-1.17,11.63-2.43,6.19-1.26,11.49-2.42,15.91-3.47,4.42-1.05,9.21-2.33,14.38-3.83-.3-6.49-1.61-11.25-3.92-14.28-2.32-3.03-7.11-4.55-14.38-4.55-6.25,0-10.95.87-14.1,2.61-3.16,1.74-5.86,4.36-8.11,7.84-2.25,3.49-3.85,5.78-4.78,6.9s-2.93,1.67-5.99,1.67c-2.76,0-5.15-.89-7.16-2.66-2.01-1.77-3.02-4.04-3.02-6.8,0-4.33,1.53-8.53,4.59-12.62,3.07-4.09,7.84-7.45,14.33-10.09,6.49-2.64,14.57-3.97,24.24-3.97,10.82,0,19.32,1.28,25.51,3.83,6.19,2.55,10.56,6.59,13.11,12.12,2.55,5.53,3.83,12.86,3.83,21.99,0,5.77-.02,10.67-.04,14.69-.03,4.03-.08,8.5-.14,13.43,0,4.63.77,9.45,2.3,14.47,1.53,5.02,2.3,8.25,2.3,9.69,0,2.52-1.19,4.82-3.56,6.9-2.37,2.07-5.06,3.11-8.07,3.11-2.52,0-5.02-1.19-7.48-3.56-2.46-2.37-5.08-5.81-7.84-10.32ZM553.58,251.79c-3.61,1.32-8.85,2.72-15.73,4.19-6.88,1.47-11.64,2.55-14.29,3.24-2.65.69-5.17,2.04-7.57,4.06-2.4,2.01-3.61,4.82-3.61,8.43s1.41,6.89,4.23,9.51c2.82,2.61,6.52,3.92,11.09,3.92,4.87,0,9.36-1.07,13.47-3.2,4.11-2.13,7.14-4.88,9.06-8.25,2.22-3.72,3.34-9.85,3.34-18.39v-3.52Z"/>
    <path class="cls-2" d="M665.69,287.21v-2.43c-3.31,3.78-6.57,6.86-9.78,9.24-3.21,2.38-6.7,4.18-10.45,5.41-3.76,1.23-7.86,1.85-12.3,1.85-5.89,0-11.34-1.25-16.36-3.74-5.02-2.49-9.36-6.05-13.02-10.68-3.67-4.63-6.45-10.06-8.34-16.31-1.89-6.25-2.84-13.01-2.84-20.28,0-15.38,3.76-27.37,11.27-35.96,7.51-8.59,17.4-12.89,29.65-12.89,7.09,0,13.07,1.22,17.94,3.65,4.87,2.43,9.61,6.17,14.24,11.22v-36.32c0-5.05,1-8.86,3.02-11.45,2.01-2.58,4.88-3.88,8.61-3.88s6.59,1.19,8.61,3.56c2.01,2.37,3.02,5.87,3.02,10.5v108.51c0,4.69-1.08,8.2-3.25,10.55-2.16,2.34-4.96,3.51-8.38,3.51s-6.14-1.22-8.34-3.65c-2.19-2.43-3.29-5.9-3.29-10.41ZM617.29,251.07c0,6.67,1.04,12.35,3.11,17.03,2.07,4.69,4.91,8.22,8.52,10.59,3.61,2.37,7.54,3.56,11.81,3.56s8.28-1.13,11.85-3.38c3.57-2.25,6.43-5.71,8.56-10.36s3.2-10.47,3.2-17.44c0-6.55-1.07-12.18-3.2-16.9-2.13-4.72-5.02-8.32-8.65-10.82-3.64-2.49-7.62-3.74-11.94-3.74s-8.53,1.28-12.08,3.83c-3.54,2.55-6.29,6.22-8.24,11-1.96,4.78-2.93,10.32-2.93,16.63Z"/>
    <path class="cls-2" d="M777.88,257.29h-48.13c.06,5.59,1.19,10.52,3.38,14.78,2.19,4.27,5.11,7.48,8.74,9.64,3.63,2.16,7.65,3.24,12.03,3.24,2.94,0,5.63-.35,8.07-1.04,2.43-.69,4.79-1.77,7.08-3.24,2.28-1.47,4.39-3.05,6.31-4.73,1.92-1.68,4.42-3.97,7.48-6.85,1.26-1.08,3.07-1.62,5.41-1.62,2.52,0,4.57.69,6.13,2.07,1.56,1.38,2.34,3.34,2.34,5.86,0,2.22-.87,4.82-2.61,7.8-1.74,2.97-4.37,5.83-7.89,8.56-3.51,2.73-7.93,5-13.25,6.8-5.32,1.8-11.43,2.7-18.34,2.7-15.8,0-28.09-4.51-36.86-13.52-8.77-9.01-13.16-21.24-13.16-36.68,0-7.27,1.08-14.01,3.24-20.23,2.16-6.22,5.32-11.55,9.46-16,4.15-4.45,9.25-7.85,15.32-10.23,6.07-2.37,12.8-3.56,20.19-3.56,9.61,0,17.86,2.03,24.74,6.08,6.88,4.06,12.03,9.3,15.46,15.73,3.42,6.43,5.14,12.98,5.14,19.65,0,6.19-1.77,10.2-5.32,12.03-3.55,1.83-8.54,2.75-14.96,2.75ZM729.76,243.32h44.61c-.6-8.41-2.87-14.7-6.81-18.88-3.94-4.18-9.12-6.26-15.55-6.26s-11.16,2.12-15.1,6.35c-3.94,4.24-6.32,10.5-7.16,18.79Z"/>
    <path class="cls-2" d="M896.3,253.05v32.72c0,5.17-1.17,9.04-3.52,11.63-2.34,2.58-5.44,3.88-9.28,3.88s-6.75-1.29-9.06-3.88c-2.32-2.58-3.47-6.46-3.47-11.63v-39.21c0-6.19-.21-11-.63-14.42-.42-3.43-1.56-6.23-3.42-8.43-1.86-2.19-4.8-3.29-8.83-3.29-8.05,0-13.35,2.77-15.91,8.29-2.56,5.53-3.83,13.46-3.83,23.79v33.26c0,5.11-1.16,8.97-3.47,11.58-2.32,2.61-5.36,3.92-9.15,3.92s-6.77-1.31-9.15-3.92c-2.37-2.61-3.56-6.47-3.56-11.58v-70.39c0-4.63,1.06-8.14,3.2-10.55,2.13-2.4,4.94-3.6,8.42-3.6s6.17,1.13,8.43,3.38c2.25,2.25,3.38,5.36,3.38,9.33v2.34c4.27-5.11,8.83-8.86,13.7-11.27,4.87-2.4,10.28-3.6,16.22-3.6s11.51,1.23,15.95,3.7c4.45,2.46,8.11,6.19,11,11.18,4.15-5.05,8.59-8.79,13.34-11.22,4.75-2.43,10.01-3.65,15.77-3.65,6.73,0,12.53,1.32,17.4,3.97,4.87,2.65,8.5,6.43,10.9,11.36,2.1,4.45,3.15,11.45,3.15,21v48.04c0,5.17-1.17,9.04-3.51,11.63-2.35,2.58-5.44,3.88-9.28,3.88s-6.77-1.31-9.15-3.92c-2.38-2.61-3.56-6.47-3.56-11.58v-41.37c0-5.29-.22-9.52-.67-12.71-.45-3.18-1.67-5.86-3.65-8.02-1.98-2.16-4.99-3.25-9.01-3.25-3.25,0-6.33.96-9.24,2.88-2.91,1.92-5.18,4.51-6.8,7.75-1.8,4.15-2.7,11.48-2.7,21.99Z"/>
    <path class="cls-2" d="M996.05,304.33l2.25-5.5-30.28-76.25c-1.86-4.39-2.79-7.57-2.79-9.55,0-2.1.54-4.06,1.62-5.86,1.08-1.8,2.57-3.24,4.46-4.33,1.89-1.08,3.86-1.62,5.9-1.62,3.54,0,6.22,1.13,8.02,3.38,1.8,2.25,3.39,5.48,4.78,9.69l20.82,60.57,19.74-56.33c1.56-4.57,2.97-8.14,4.23-10.72,1.26-2.58,2.6-4.33,4.01-5.23,1.41-.9,3.41-1.35,6-1.35,1.86,0,3.65.5,5.36,1.49s3.03,2.33,3.97,4.01c.93,1.68,1.4,3.46,1.4,5.32-.24,1.14-.63,2.76-1.17,4.87-.54,2.1-1.2,4.24-1.98,6.4l-32.09,84c-2.77,7.39-5.47,13.19-8.11,17.39-2.65,4.21-6.15,7.44-10.5,9.69s-10.23,3.38-17.62,3.38-12.62-.78-16.22-2.34c-3.61-1.56-5.41-4.42-5.41-8.56,0-2.83.86-5,2.57-6.53,1.71-1.53,4.25-2.3,7.62-2.3,1.32,0,2.61.18,3.88.54,1.56.36,2.91.54,4.05.54,2.82,0,5.05-.42,6.67-1.26,1.62-.84,3.08-2.3,4.37-4.37,1.29-2.07,2.78-5.12,4.46-9.15Z"/>
    <path class="cls-2" d="M144.46,244.75v-65.74c0-5.59,1.26-9.79,3.78-12.59,2.52-2.8,5.83-4.2,9.93-4.2s7.69,1.4,10.21,4.2,3.78,6.99,3.78,12.59v67.23c0,7.64.85,14.03,2.56,19.16,1.71,5.13,4.74,9.11,9.09,11.94,4.35,2.83,10.44,4.24,18.28,4.24,10.81,0,18.46-2.88,22.94-8.63,4.47-5.75,6.71-14.47,6.71-26.15v-67.79c0-5.66,1.24-9.87,3.73-12.64,2.49-2.77,5.81-4.15,9.98-4.15s7.54,1.38,10.12,4.15c2.58,2.77,3.87,6.98,3.87,12.64v65.74c0,10.69-1.04,19.61-3.12,26.76-2.08,7.15-6.02,13.43-11.8,18.84-4.98,4.6-10.76,7.96-17.34,10.07s-14.3,3.17-23.12,3.17c-10.5,0-19.55-1.13-27.13-3.4-7.59-2.27-13.77-5.78-18.56-10.54-4.79-4.75-8.3-10.85-10.54-18.28-2.24-7.43-3.36-16.3-3.36-26.62Z"/>
  </g>
</svg>